PathFileType	4	(X/Y/Z)	OpenSim_Sub01_CSStiffKnee_Magnet.trc
DataRate	CameraRate	NumFrames	NumMarkers	Units	OrigDataRate	OrigDataStartFrame	OrigNumFrames
100	100	20	8	m	100	2018	5381
Frame#	Time	torso_imu_offset_imu	pelvis_imu_offset_imu	tibia_r_imu_offset_imu	femur_r_imu_offset_imu	tibia_l_imu_offset_imu	femur_l_imu_offset_imu	toes_r_imu_offset_imu	toes_l_imu_offset_imu
				X1	Y1	Z1	X2	Y2	Z2	X3	Y3	Z3	X4	Y4	Z4	X5	Y5	Z5	X6	Y6	Z6	X7	Y7	Z7	X8		Y8	Z8	

2018	20.17000000	-0.92596780	-0.13031684	0.10644478	-0.66974804	0.14177778	-0.64298371	-0.68553387	-0.38730438	-0.03227089	-0.77565370	-0.27684034	0.07017248	-0.39415761	0.69618300	0.22443281	-0.32916133	0.08135419	0.36544139	-0.69371388	-0.03571670	-0.40449944	-0.76918217	-0.17919144	-0.17269977
2019	20.18000000	-0.92656364	-0.12768942	0.10578979	-0.66650188	0.14082072	-0.64506958	-0.68099593	-0.39791819	-0.02078910	-0.77873708	-0.27534224	0.07199468	-0.38070276	0.70465358	0.21346816	-0.32952445	0.08787371	0.36232589	-0.69946493	-0.04575256	-0.39501134	-0.77398296	-0.17967397	-0.14666945
2020	20.19000000	-0.92737494	-0.12403940	0.10154242	-0.66739703	0.14288306	-0.64487411	-0.67399403	-0.40980897	-0.01086160	-0.77802113	-0.27315327	0.08167510	-0.36796973	0.71228683	0.20323293	-0.32828481	0.09042873	0.35869629	-0.70391129	-0.05241483	-0.38851023	-0.77849659	-0.18202929	-0.12007847
2021	20.20000000	-0.92837889	-0.12027416	0.09512087	-0.67152435	0.14614467	-0.64290699	-0.66550059	-0.42186082	-0.00321975	-0.77349479	-0.27251673	0.09611663	-0.35662851	0.71933279	0.19466922	-0.32671787	0.09049705	0.35480569	-0.70717410	-0.05644813	-0.38369280	-0.78276961	-0.18471271	-0.09274110
2022	20.21000000	-0.92903214	-0.11821846	0.09081762	-0.67575569	0.14704016	-0.64037446	-0.65817780	-0.43229451	0.00209959	-0.76763994	-0.27570706	0.10768161	-0.34606413	0.72624691	0.18733024	-0.32767278	0.09186359	0.35182401	-0.70933063	-0.05906054	-0.37954869	-0.78733838	-0.18469968	-0.06281636
2023	20.22000000	-0.92908431	-0.11865939	0.09043277	-0.67807998	0.14374206	-0.63813428	-0.65340537	-0.44028277	0.00565557	-0.76218497	-0.28362496	0.11219890	-0.33569943	0.73306048	0.18118203	-0.33222471	0.09654762	0.34964115	-0.71050439	-0.06129314	-0.37537457	-0.79208763	-0.18055527	-0.03023771
2024	20.23000000	-0.92895374	-0.12004226	0.09012241	-0.67904253	0.13835096	-0.63624667	-0.64965266	-0.44714153	0.00931707	-0.75710503	-0.29410508	0.11336313	-0.32507877	0.73885253	0.17715193	-0.33744524	0.10256223	0.34526449	-0.71092332	-0.06380090	-0.37114366	-0.79543403	-0.17443410	0.00105439
2025	20.24000000	-0.92908356	-0.12061434	0.08579047	-0.67946064	0.13326843	-0.63472588	-0.64519323	-0.45435064	0.01490090	-0.75217623	-0.30476698	0.11549617	-0.31391928	0.74270772	0.17611822	-0.34019315	0.10755587	0.33587806	-0.71084162	-0.06708957	-0.36695986	-0.79580584	-0.16885714	0.02676558
2026	20.25000000	-0.92923886	-0.11984969	0.07862116	-0.67938823	0.12851585	-0.63422597	-0.64034419	-0.46208796	0.02185620	-0.74756888	-0.31529285	0.11840845	-0.30355221	0.74509908	0.17711059	-0.34072246	0.11100848	0.32451574	-0.71063852	-0.07066341	-0.36333080	-0.79380123	-0.16511380	0.04454452
2027	20.26000000	-0.92878727	-0.11794698	0.07290474	-0.67843048	0.12271541	-0.63577508	-0.63662301	-0.46976379	0.02823990	-0.74368445	-0.32657806	0.11925708	-0.29625794	0.74731481	0.17807042	-0.34128536	0.11347983	0.31764511	-0.71076592	-0.07343910	-0.36099846	-0.79129732	-0.16376457	0.05318977
2028	20.27000000	-0.92764016	-0.11529752	0.07105585	-0.67652974	0.11552182	-0.63969688	-0.63443612	-0.47688117	0.03304483	-0.74063981	-0.33875801	0.11691747	-0.29367299	0.74982470	0.17741222	-0.34313346	0.11539367	0.31809083	-0.71144393	-0.07501263	-0.35989622	-0.78992120	-0.16486547	0.05226423
2029	20.28000000	-0.92693351	-0.11270149	0.07121448	-0.67439353	0.10893398	-0.64473240	-0.63167645	-0.48317223	0.03739228	-0.73791001	-0.35023733	0.11417548	-0.29596983	0.75124905	0.17463760	-0.34522812	0.11683913	0.32045017	-0.71237337	-0.07651261	-0.35814651	-0.79070524	-0.16736802	0.04300321
2030	20.29000000	-0.92781572	-0.11090270	0.07110173	-0.67277951	0.10499683	-0.64942737	-0.62623503	-0.48846461	0.04245475	-0.73486877	-0.35937854	0.11399757	-0.30303647	0.75015638	0.16947498	-0.34633105	0.11792188	0.31886027	-0.71321622	-0.07904688	-0.35390651	-0.79433351	-0.17013846	0.02686160
2031	20.30000000	-0.92985292	-0.10949165	0.07008507	-0.67189417	0.10295628	-0.65252202	-0.61949455	-0.49325203	0.04696006	-0.73074026	-0.36652631	0.11575253	-0.31386912	0.74716410	0.16247561	-0.34634174	0.11938522	0.31420029	-0.71395882	-0.08136763	-0.34822223	-0.79872469	-0.17270624	0.00522500
2032	20.31000000	-0.93167986	-0.10738126	0.06850533	-0.67161920	0.10041054	-0.65287806	-0.61488813	-0.49841779	0.04820319	-0.72466559	-0.37319336	0.11669179	-0.32693928	0.74409278	0.15467494	-0.34583111	0.12234437	0.31131540	-0.71477826	-0.08084709	-0.34383709	-0.80017482	-0.17499075	-0.02056016
2033	20.32000000	-0.93236155	-0.10407135	0.06714706	-0.67190892	0.09569777	-0.65078167	-0.61386337	-0.50413393	0.04544053	-0.71688921	-0.38061477	0.11512520	-0.34100906	0.74159038	0.14685295	-0.34541810	0.12700702	0.31268422	-0.71573019	-0.07688964	-0.34208018	-0.79681333	-0.17664451	-0.04878443
2034	20.33000000	-0.93194994	-0.10039070	0.06775676	-0.67288906	0.08885456	-0.64969396	-0.61337865	-0.50897424	0.04234628	-0.71011972	-0.38937238	0.11178526	-0.35550404	0.73765375	0.13920564	-0.34580936	0.13154525	0.31539045	-0.71659377	-0.07347381	-0.34107581	-0.79090735	-0.17671334	-0.07692726
2035	20.34000000	-0.93070456	-0.09726716	0.07189581	-0.67462477	0.08020454	-0.65302703	-0.61014192	-0.51156466	0.04276535	-0.70704000	-0.39978480	0.10774360	-0.36990875	0.73029792	0.13181586	-0.34767253	0.13400138	0.31610998	-0.71712069	-0.07465647	-0.33872147	-0.78513408	-0.17432206	-0.10253855
2036	20.35000000	-0.92964907	-0.09479459	0.07787009	-0.67631638	0.07066151	-0.65925208	-0.60454709	-0.51330177	0.04613410	-0.70662525	-0.41036513	0.10418835	-0.38338934	0.72142830	0.12441427	-0.35114946	0.13392199	0.31484442	-0.71716544	-0.07891379	-0.33504963	-0.78062498	-0.17025858	-0.12502834
2037	20.36000000	-0.93025312	-0.09257509	0.08207318	-0.67665860	0.06148534	-0.66393474	-0.59915823	-0.51720744	0.04929387	-0.70566909	-0.41856906	0.10237317	-0.39492874	0.71523286	0.11652617	-0.35607091	0.13174116	0.31355118	-0.71664417	-0.08144152	-0.33135027	-0.77759781	-0.16628832	-0.14490421
